<svg width="216" height="47" viewBox="0 0 216 47" fill="none" xmlns="http://www.w3.org/2000/svg">
<path d="M15.664 12.104H22.048V35H17.296L16.624 32.408H16.432C16.08 32.76 15.664 33.128 15.184 33.512C14.736 33.864 14.192 34.2 13.552 34.52C12.944 34.808 12.24 35.048 11.44 35.24C10.672 35.432 9.808 35.528 8.848 35.528C6.384 35.528 4.432 34.84 2.992 33.464C1.584 32.088 0.88 30.056 0.88 27.368V12.104H7.264V26.84C7.264 28.216 7.584 29.208 8.224 29.816C8.896 30.424 9.744 30.728 10.768 30.728C11.92 30.728 12.896 30.488 13.696 30.008C14.528 29.528 15.184 28.968 15.664 28.328V12.104ZM41.6103 17.576C39.7223 16.68 37.8983 16.232 36.1383 16.232C35.1143 16.232 34.3143 16.408 33.7383 16.76C33.1943 17.112 32.9223 17.592 32.9223 18.2C32.9223 18.808 33.1623 19.304 33.6423 19.688C34.1543 20.072 35.1623 20.488 36.6663 20.936L38.1063 21.368C40.0903 21.944 41.5943 22.776 42.6183 23.864C43.6423 24.952 44.1543 26.36 44.1543 28.088C44.1543 30.36 43.2743 32.168 41.5143 33.512C39.7863 34.856 37.4343 35.528 34.4583 35.528C31.4183 35.528 28.8103 34.984 26.6343 33.896L28.0742 29.192C29.0023 29.672 29.9783 30.072 31.0023 30.392C32.0263 30.68 33.0663 30.824 34.1223 30.824C35.4023 30.824 36.3303 30.632 36.9062 30.248C37.5143 29.832 37.8183 29.304 37.8183 28.664C37.8183 27.992 37.5303 27.48 36.9543 27.128C36.3783 26.744 35.2903 26.328 33.6903 25.88L32.2023 25.448C30.2823 24.808 28.8743 23.96 27.9783 22.904C27.0823 21.848 26.6343 20.44 26.6343 18.68C26.6343 16.6 27.4183 14.904 28.9863 13.592C30.5543 12.28 32.7463 11.624 35.5623 11.624C38.3463 11.624 40.8103 12.12 42.9543 13.112L41.6103 17.576ZM68.8113 25.208H53.5953V25.4C53.5953 27.224 54.2353 28.584 55.5153 29.48C56.7953 30.376 58.4433 30.824 60.4593 30.824C61.7393 30.824 62.8593 30.696 63.8193 30.44C64.8113 30.184 65.7073 29.88 66.5073 29.528L67.6593 33.992C66.7953 34.408 65.7073 34.76 64.3953 35.048C63.0833 35.368 61.5313 35.528 59.7393 35.528C58.0113 35.528 56.3793 35.304 54.8433 34.856C53.3393 34.376 52.0113 33.656 50.8593 32.696C49.7393 31.736 48.8433 30.52 48.1713 29.048C47.4993 27.576 47.1633 25.816 47.1633 23.768C47.1633 21.944 47.4353 20.296 47.9793 18.824C48.5233 17.32 49.2913 16.04 50.2833 14.984C51.3073 13.928 52.5233 13.112 53.9313 12.536C55.3393 11.928 56.9073 11.624 58.6353 11.624C61.7393 11.624 64.2033 12.568 66.0273 14.456C67.8833 16.344 68.8113 18.984 68.8113 22.376V25.208ZM62.2833 20.84C62.2833 20.232 62.2033 19.64 62.0433 19.064C61.9153 18.488 61.6913 17.992 61.3713 17.576C61.0513 17.128 60.6513 16.776 60.1713 16.52C59.6913 16.264 59.0993 16.136 58.3953 16.136C57.1153 16.136 56.0593 16.568 55.2273 17.432C54.3953 18.296 53.8993 19.464 53.7393 20.936L62.2833 20.84ZM73.3019 35V12.104H78.2459L78.9659 16.232C79.5099 15.016 80.3739 13.944 81.5579 13.016C82.7419 12.088 84.2299 11.624 86.0219 11.624C86.7579 11.624 87.4139 11.704 87.9899 11.864C88.5659 12.024 89.0459 12.216 89.4299 12.44L88.3739 17.48C88.0219 17.288 87.5739 17.128 87.0299 17C86.4859 16.84 85.8459 16.76 85.1099 16.76C83.5419 16.76 82.2299 17.288 81.1739 18.344C80.1499 19.368 79.6379 21.064 79.6379 23.432V35H73.3019ZM98.389 35H92.005V12.104H96.997L97.765 15.032C98.789 13.976 99.909 13.144 101.125 12.536C102.341 11.928 103.717 11.624 105.253 11.624C108.517 11.624 110.741 12.808 111.925 15.176C112.949 14.056 114.117 13.192 115.429 12.584C116.741 11.944 118.149 11.624 119.653 11.624C122.085 11.624 123.941 12.28 125.221 13.592C126.533 14.904 127.189 16.808 127.189 19.304V35H120.805V20.024C120.805 18.936 120.533 18.088 119.989 17.48C119.477 16.84 118.709 16.52 117.685 16.52C116.821 16.52 115.941 16.728 115.045 17.144C114.181 17.56 113.429 18.152 112.789 18.92V35H106.405V20.024C106.405 18.936 106.133 18.088 105.589 17.48C105.077 16.84 104.309 16.52 103.285 16.52C102.421 16.52 101.541 16.76 100.645 17.24C99.781 17.688 99.029 18.312 98.389 19.112V35ZM133.358 14.12C134.734 13.32 136.19 12.712 137.726 12.296C139.262 11.848 140.894 11.624 142.622 11.624C143.998 11.624 145.246 11.784 146.366 12.104C147.518 12.424 148.494 12.936 149.294 13.64C150.126 14.312 150.75 15.192 151.166 16.28C151.614 17.336 151.838 18.616 151.838 20.12V35H146.894L146.318 32.648H146.126C145.39 33.544 144.446 34.248 143.294 34.76C142.174 35.272 140.862 35.528 139.358 35.528C138.11 35.528 137.006 35.352 136.046 35C135.086 34.616 134.27 34.12 133.598 33.512C132.926 32.872 132.414 32.12 132.062 31.256C131.742 30.392 131.582 29.464 131.582 28.472C131.582 27.16 131.854 26.04 132.398 25.112C132.974 24.152 133.758 23.368 134.75 22.76C135.742 22.152 136.894 21.704 138.206 21.416C139.55 21.128 140.99 20.984 142.526 20.984H145.406V19.592C145.406 18.536 145.07 17.768 144.398 17.288C143.758 16.776 142.846 16.52 141.662 16.52C140.734 16.52 139.774 16.664 138.782 16.952C137.822 17.24 136.75 17.704 135.566 18.344L133.358 14.12ZM145.454 24.968L143.39 25.016C141.438 25.08 140.078 25.416 139.31 26.024C138.542 26.6 138.158 27.304 138.158 28.136C138.158 29.224 138.478 29.976 139.118 30.392C139.79 30.776 140.542 30.968 141.374 30.968C142.206 30.968 142.99 30.728 143.726 30.248C144.494 29.768 145.07 29.208 145.454 28.568V24.968ZM157.109 19.88C157.109 18.632 157.349 17.496 157.829 16.472C158.341 15.448 159.029 14.584 159.893 13.88C160.789 13.144 161.829 12.584 163.013 12.2C164.229 11.816 165.557 11.624 166.997 11.624C167.541 11.624 168.133 11.672 168.773 11.768C169.413 11.832 170.005 11.944 170.549 12.104H180.341V16.136H178.277L175.301 15.704C175.717 16.216 176.053 16.856 176.309 17.624C176.597 18.392 176.741 19.16 176.741 19.928C176.741 22.36 175.861 24.328 174.101 25.832C172.373 27.304 169.989 28.04 166.949 28.04C166.149 28.04 165.445 27.976 164.837 27.848C164.037 28.168 163.637 28.696 163.637 29.432C163.637 29.944 163.813 30.328 164.165 30.584C164.517 30.84 165.141 30.968 166.037 30.968H171.173C173.701 30.968 175.717 31.528 177.221 32.648C178.757 33.736 179.525 35.496 179.525 37.928C179.525 39.176 179.221 40.312 178.613 41.336C178.037 42.392 177.205 43.288 176.117 44.024C175.029 44.792 173.717 45.384 172.181 45.8C170.645 46.216 168.933 46.424 167.045 46.424C163.557 46.424 160.789 45.8 158.741 44.552C156.725 43.336 155.717 41.576 155.717 39.272C155.717 38.216 156.069 37.288 156.773 36.488C157.477 35.72 158.453 35.112 159.701 34.664C159.253 34.344 158.805 33.896 158.357 33.32C157.909 32.712 157.685 31.96 157.685 31.064C157.685 30.008 158.005 29.096 158.645 28.328C159.285 27.56 160.101 26.952 161.093 26.504C160.613 26.248 160.133 25.928 159.653 25.544C159.205 25.128 158.789 24.648 158.405 24.104C158.021 23.56 157.701 22.936 157.445 22.232C157.221 21.528 157.109 20.744 157.109 19.88ZM163.253 35.768C162.773 36.024 162.373 36.36 162.053 36.776C161.733 37.192 161.573 37.72 161.573 38.36C161.573 39.288 161.989 40.056 162.821 40.664C163.685 41.304 165.157 41.624 167.237 41.624C169.317 41.624 170.837 41.272 171.797 40.568C172.757 39.864 173.237 39.064 173.237 38.168C173.237 37.272 172.933 36.648 172.325 36.296C171.717 35.944 170.773 35.768 169.493 35.768H163.253ZM170.501 19.832C170.501 18.584 170.165 17.64 169.493 17C168.821 16.36 167.973 16.04 166.949 16.04C165.893 16.04 165.029 16.36 164.357 17C163.717 17.64 163.397 18.568 163.397 19.784C163.397 21.064 163.733 22.024 164.405 22.664C165.077 23.304 165.925 23.624 166.949 23.624C168.005 23.624 168.853 23.304 169.493 22.664C170.165 22.024 170.501 21.08 170.501 19.832ZM185.111 35V12.104H191.495V35H185.111ZM188.327 7.208C187.239 7.208 186.391 6.904 185.783 6.296C185.175 5.656 184.871 4.872 184.871 3.944C184.871 3.016 185.175 2.248 185.783 1.64C186.391 0.999998 187.239 0.679998 188.327 0.679998C189.383 0.679998 190.215 0.999998 190.823 1.64C191.463 2.248 191.783 3.016 191.783 3.944C191.783 4.872 191.479 5.656 190.871 6.296C190.263 6.904 189.415 7.208 188.327 7.208ZM209.849 30.824C210.873 30.824 211.769 30.696 212.537 30.44C213.337 30.152 213.993 29.88 214.505 29.624L215.705 34.04C215.065 34.392 214.137 34.728 212.921 35.048C211.705 35.368 210.377 35.528 208.937 35.528C207.209 35.528 205.593 35.272 204.089 34.76C202.585 34.248 201.273 33.496 200.153 32.504C199.065 31.48 198.201 30.232 197.561 28.76C196.921 27.288 196.601 25.576 196.601 23.624C196.601 21.832 196.905 20.2 197.513 18.728C198.121 17.256 198.969 15.992 200.057 14.936C201.145 13.88 202.457 13.064 203.993 12.488C205.529 11.912 207.209 11.624 209.033 11.624C210.025 11.624 211.065 11.72 212.153 11.912C213.273 12.104 214.441 12.52 215.657 13.16L214.313 17.576C213.641 17.192 212.905 16.888 212.105 16.664C211.337 16.408 210.553 16.28 209.753 16.28C207.769 16.28 206.153 16.888 204.905 18.104C203.689 19.32 203.081 21.096 203.081 23.432C203.081 24.808 203.273 25.976 203.657 26.936C204.073 27.864 204.601 28.616 205.241 29.192C205.881 29.768 206.601 30.184 207.401 30.44C208.201 30.696 209.017 30.824 209.849 30.824Z" fill="black"/>
</svg>
