<svg width="335" height="157" viewBox="0 0 335 157" fill="none" xmlns="http://www.w3.org/2000/svg">
<path d="M48.4688 38.7891L54.9922 3.125H68.5859L56.5156 60H42.2969L34.6797 27.5781L27.2188 60H13.0391L0.929688 3.125H14.5625L21.0859 38.7891L28.8984 3.125H40.5391L48.4688 38.7891ZM92.5312 60.7812C86.0469 60.7812 80.7995 58.8542 76.7891 55C72.7786 51.1198 70.7734 46.0807 70.7734 39.8828V38.7891C70.7734 34.4661 71.5677 30.651 73.1562 27.3438C74.7708 24.0365 77.1146 21.4844 80.1875 19.6875C83.2604 17.8646 86.9062 16.9531 91.125 16.9531C97.0625 16.9531 101.75 18.8021 105.188 22.5C108.625 26.1719 110.344 31.3021 110.344 37.8906V43.0078H84.1719C84.6406 45.3776 85.6693 47.2396 87.2578 48.5938C88.8464 49.9479 90.9036 50.625 93.4297 50.625C97.5964 50.625 100.852 49.1667 103.195 46.25L109.211 53.3594C107.57 55.625 105.24 57.4349 102.219 58.7891C99.224 60.1172 95.9948 60.7812 92.5312 60.7812ZM91.0469 27.1094C87.1927 27.1094 84.901 29.6615 84.1719 34.7656H97.4531V33.75C97.5052 31.6406 96.9714 30.013 95.8516 28.8672C94.7318 27.6953 93.1302 27.1094 91.0469 27.1094ZM129.562 60H116.359V0H129.562V60ZM155.578 50.625C157.427 50.625 158.859 50.1302 159.875 49.1406C160.891 48.125 161.385 46.7188 161.359 44.9219H173.703C173.703 49.5573 172.036 53.3594 168.703 56.3281C165.396 59.2969 161.125 60.7812 155.891 60.7812C149.745 60.7812 144.901 58.8542 141.359 55C137.818 51.1458 136.047 45.8073 136.047 38.9844V38.4375C136.047 34.1667 136.828 30.4036 138.391 27.1484C139.979 23.8672 142.258 21.3542 145.227 19.6094C148.195 17.8385 151.711 16.9531 155.773 16.9531C161.268 16.9531 165.63 18.4766 168.859 21.5234C172.089 24.5703 173.703 28.6979 173.703 33.9062H161.359C161.359 31.7188 160.826 30.0391 159.758 28.8672C158.69 27.6953 157.258 27.1094 155.461 27.1094C152.049 27.1094 150.057 29.2839 149.484 33.6328C149.302 35.013 149.211 36.9141 149.211 39.3359C149.211 43.5807 149.719 46.5234 150.734 48.1641C151.75 49.8047 153.365 50.625 155.578 50.625ZM177.609 38.4766C177.609 34.2578 178.43 30.5078 180.07 27.2266C181.711 23.9193 184.068 21.3802 187.141 19.6094C190.214 17.8385 193.82 16.9531 197.961 16.9531C204.289 16.9531 209.276 18.9193 212.922 22.8516C216.568 26.7578 218.391 32.0833 218.391 38.8281V39.2969C218.391 45.8854 216.555 51.1198 212.883 55C209.237 58.8542 204.289 60.7812 198.039 60.7812C192.023 60.7812 187.193 58.9844 183.547 55.3906C179.901 51.7708 177.935 46.875 177.648 40.7031L177.609 38.4766ZM190.773 39.2969C190.773 43.2031 191.385 46.0677 192.609 47.8906C193.833 49.7135 195.643 50.625 198.039 50.625C202.727 50.625 205.122 47.0182 205.227 39.8047V38.4766C205.227 30.8984 202.805 27.1094 197.961 27.1094C193.56 27.1094 191.177 30.3776 190.812 36.9141L190.773 39.2969ZM236.633 17.7344L237.062 22.6953C240.057 18.8672 244.081 16.9531 249.133 16.9531C254.471 16.9531 258.078 19.0755 259.953 23.3203C262.818 19.0755 266.958 16.9531 272.375 16.9531C280.943 16.9531 285.344 22.1354 285.578 32.5V60H272.375V33.3203C272.375 31.1589 272.01 29.5833 271.281 28.5938C270.552 27.6042 269.224 27.1094 267.297 27.1094C264.693 27.1094 262.753 28.2682 261.477 30.5859L261.516 31.1328V60H248.312V33.3984C248.312 31.1849 247.961 29.5833 247.258 28.5938C246.555 27.6042 245.214 27.1094 243.234 27.1094C240.708 27.1094 238.781 28.2682 237.453 30.5859V60H224.289V17.7344H236.633ZM313.547 60.7812C307.062 60.7812 301.815 58.8542 297.805 55C293.794 51.1198 291.789 46.0807 291.789 39.8828V38.7891C291.789 34.4661 292.583 30.651 294.172 27.3438C295.786 24.0365 298.13 21.4844 301.203 19.6875C304.276 17.8646 307.922 16.9531 312.141 16.9531C318.078 16.9531 322.766 18.8021 326.203 22.5C329.641 26.1719 331.359 31.3021 331.359 37.8906V43.0078H305.188C305.656 45.3776 306.685 47.2396 308.273 48.5938C309.862 49.9479 311.919 50.625 314.445 50.625C318.612 50.625 321.867 49.1667 324.211 46.25L330.227 53.3594C328.586 55.625 326.255 57.4349 323.234 58.7891C320.24 60.1172 317.01 60.7812 313.547 60.7812ZM312.062 27.1094C308.208 27.1094 305.917 29.6615 305.188 34.7656H318.469V33.75C318.521 31.6406 317.987 30.013 316.867 28.8672C315.747 27.6953 314.146 27.1094 312.062 27.1094ZM157.844 156V99.125H178.273C185.591 99.125 191.151 100.466 194.953 103.148C198.781 105.831 200.695 109.724 200.695 114.828C200.695 117.771 200.018 120.284 198.664 122.367C197.31 124.451 195.318 125.987 192.688 126.977C195.656 127.758 197.935 129.216 199.523 131.352C201.112 133.487 201.906 136.091 201.906 139.164C201.906 144.737 200.135 148.93 196.594 151.742C193.078 154.529 187.857 155.948 180.93 156H157.844ZM171.555 131.82V145.453H180.539C183.013 145.453 184.914 144.893 186.242 143.773C187.57 142.628 188.234 141.026 188.234 138.969C188.234 134.229 185.878 131.846 181.164 131.82H171.555ZM171.555 122.836H178.703C181.698 122.81 183.833 122.263 185.109 121.195C186.385 120.128 187.023 118.552 187.023 116.469C187.023 114.073 186.333 112.354 184.953 111.312C183.573 110.245 181.346 109.711 178.273 109.711H171.555V122.836ZM232.688 156C232.219 155.141 231.802 153.878 231.438 152.211C229.016 155.258 225.63 156.781 221.281 156.781C217.297 156.781 213.911 155.583 211.125 153.188C208.339 150.766 206.945 147.732 206.945 144.086C206.945 139.503 208.638 136.039 212.023 133.695C215.409 131.352 220.331 130.18 226.789 130.18H230.852V127.953C230.852 124.073 229.172 122.133 225.812 122.133C222.688 122.133 221.125 123.669 221.125 126.742H207.961C207.961 122.654 209.693 119.333 213.156 116.781C216.646 114.229 221.086 112.953 226.477 112.953C231.867 112.953 236.125 114.268 239.25 116.898C242.375 119.529 243.977 123.135 244.055 127.719V146.43C244.107 150.31 244.706 153.279 245.852 155.336V156H232.688ZM224.445 147.406C226.086 147.406 227.44 147.055 228.508 146.352C229.602 145.648 230.383 144.854 230.852 143.969V137.211H227.023C222.44 137.211 220.148 139.268 220.148 143.383C220.148 144.581 220.552 145.557 221.359 146.312C222.167 147.042 223.195 147.406 224.445 147.406ZM269.25 146.625C271.099 146.625 272.531 146.13 273.547 145.141C274.562 144.125 275.057 142.719 275.031 140.922H287.375C287.375 145.557 285.708 149.359 282.375 152.328C279.068 155.297 274.797 156.781 269.562 156.781C263.417 156.781 258.573 154.854 255.031 151C251.49 147.146 249.719 141.807 249.719 134.984V134.438C249.719 130.167 250.5 126.404 252.062 123.148C253.651 119.867 255.93 117.354 258.898 115.609C261.867 113.839 265.383 112.953 269.445 112.953C274.94 112.953 279.302 114.477 282.531 117.523C285.76 120.57 287.375 124.698 287.375 129.906H275.031C275.031 127.719 274.497 126.039 273.43 124.867C272.362 123.695 270.93 123.109 269.133 123.109C265.721 123.109 263.729 125.284 263.156 129.633C262.974 131.013 262.883 132.914 262.883 135.336C262.883 139.581 263.391 142.523 264.406 144.164C265.422 145.805 267.036 146.625 269.25 146.625ZM309.914 140.258L306.203 143.969V156H293.039V95.9609H306.203V127.836L307.531 126.078L317.453 113.734H333.234L318.43 131.117L334.211 156H319.133L309.914 140.258Z" fill="#212353"/>
</svg>
